<svg width="24" height="25" viewBox="0 0 24 25" fill="none" xmlns="http://www.w3.org/2000/svg">
<mask id="mask0_2006_37" style="mask-type:alpha" maskUnits="userSpaceOnUse" x="0" y="0" width="24" height="25">
<rect y="0.5" width="24" height="24" fill="#D9D9D9"/>
</mask>
<g mask="url(#mask0_2006_37)">
<path d="M12.1 22.5C10.7 22.5 9.3875 22.2333 8.1625 21.7C6.9375 21.1667 5.87083 20.4458 4.9625 19.5375C4.05417 18.6292 3.33333 17.5625 2.8 16.3375C2.26667 15.1125 2 13.8 2 12.4C2 9.96667 2.775 7.82083 4.325 5.9625C5.875 4.10417 7.85 2.95 10.25 2.5C9.95 4.15 10.0417 5.7625 10.525 7.3375C11.0083 8.9125 11.8417 10.2917 13.025 11.475C14.2083 12.6583 15.5875 13.4917 17.1625 13.975C18.7375 14.4583 20.35 14.55 22 14.25C21.5667 16.65 20.4167 18.625 18.55 20.175C16.6833 21.725 14.5333 22.5 12.1 22.5ZM12.1 20.5C13.5667 20.5 14.925 20.1333 16.175 19.4C17.425 18.6667 18.4083 17.6583 19.125 16.375C17.6917 16.2417 16.3333 15.8792 15.05 15.2875C13.7667 14.6958 12.6167 13.8917 11.6 12.875C10.5833 11.8583 9.775 10.7083 9.175 9.425C8.575 8.14167 8.21667 6.78333 8.1 5.35C6.81667 6.06667 5.8125 7.05417 5.0875 8.3125C4.3625 9.57083 4 10.9333 4 12.4C4 14.65 4.7875 16.5625 6.3625 18.1375C7.9375 19.7125 9.85 20.5 12.1 20.5Z" fill="#00CFC1"/>
</g>
</svg>
