<svg width="24" height="25" viewBox="0 0 24 25" fill="none" xmlns="http://www.w3.org/2000/svg">
<mask id="mask0_2006_24" style="mask-type:alpha" maskUnits="userSpaceOnUse" x="0" y="0" width="24" height="25">
<rect y="0.5" width="24" height="24" fill="#D9D9D9"/>
</mask>
<g mask="url(#mask0_2006_24)">
<path d="M12.3 17.5C13.6833 17.5 14.8625 17.0125 15.8375 16.0375C16.8125 15.0625 17.3 13.8833 17.3 12.5C17.3 11.1167 16.8125 9.9375 15.8375 8.9625C14.8625 7.9875 13.6833 7.5 12.3 7.5C11.9333 7.5 11.575 7.5375 11.225 7.6125C10.875 7.6875 10.5333 7.8 10.2 7.95C11.1 8.36666 11.8125 8.98333 12.3375 9.8C12.8625 10.6167 13.125 11.5167 13.125 12.5C13.125 13.4833 12.8625 14.3833 12.3375 15.2C11.8125 16.0167 11.1 16.6333 10.2 17.05C10.5333 17.2 10.875 17.3125 11.225 17.3875C11.575 17.4625 11.9333 17.5 12.3 17.5ZM12 23.8L8.65 20.5H4V15.85L0.7 12.5L4 9.15V4.5H8.65L12 1.2L15.35 4.5H20V9.15L23.3 12.5L20 15.85V20.5H15.35L12 23.8ZM12 21L14.5 18.5H18V15L20.5 12.5L18 10V6.5H14.5L12 4L9.5 6.5H6V10L3.5 12.5L6 15V18.5H9.5L12 21Z" fill="#00CFC1"/>
</g>
</svg>
