<svg width="64" height="64" viewBox="0 0 64 64" fill="none" xmlns="http://www.w3.org/2000/svg">
<g clip-path="url(#clip0_2005_34)">
<path d="M0 46C0 46.5304 0.210714 47.0391 0.585786 47.4142C0.960859 47.7893 1.46957 48 2 48H24C24.5304 48 25.0391 47.7893 25.4142 47.4142C25.7893 47.0391 26 46.5304 26 46C26 45.4696 25.7893 44.9609 25.4142 44.5858C25.0391 44.2107 24.5304 44 24 44H4V4H21.171L28.586 11.414C28.961 11.7891 29.4696 11.9999 30 12H60V44H40C39.4696 44 38.9609 44.2107 38.5858 44.5858C38.2107 44.9609 38 45.4696 38 46C38 46.5304 38.2107 47.0391 38.5858 47.4142C38.9609 47.7893 39.4696 48 40 48H62C62.5304 48 63.0391 47.7893 63.4142 47.4142C63.7893 47.0391 64 46.5304 64 46V10C64 9.46957 63.7893 8.96086 63.4142 8.58579C63.0391 8.21071 62.5304 8 62 8H30.829L23.414 0.586C23.039 0.210901 22.5304 0.000113275 22 0L2 0C1.46957 0 0.960859 0.210714 0.585786 0.585786C0.210714 0.960859 0 1.46957 0 2L0 46Z" fill="#00CFC1"/>
<path d="M32 28C31.4696 28 30.9609 28.2107 30.5858 28.5858C30.2107 28.9609 30 29.4696 30 30V57.171L25.414 52.586C25.2295 52.395 25.0088 52.2426 24.7648 52.1378C24.5208 52.033 24.2584 51.9778 23.9928 51.9755C23.7272 51.9732 23.4639 52.0238 23.2181 52.1244C22.9723 52.2249 22.749 52.3734 22.5612 52.5612C22.3734 52.749 22.2249 52.9723 22.1244 53.2181C22.0238 53.4639 21.9732 53.7272 21.9755 53.9928C21.9778 54.2584 22.033 54.5208 22.1378 54.7648C22.2426 55.0088 22.395 55.2295 22.586 55.414L30.586 63.414C30.976 63.805 31.488 64 32 64C32.512 64 33.024 63.805 33.414 63.414L41.414 55.414C41.605 55.2295 41.7574 55.0088 41.8622 54.7648C41.967 54.5208 42.0222 54.2584 42.0245 53.9928C42.0268 53.7272 41.9762 53.4639 41.8756 53.2181C41.7751 52.9723 41.6266 52.749 41.4388 52.5612C41.251 52.3734 41.0277 52.2249 40.7819 52.1244C40.5361 52.0238 40.2728 51.9732 40.0072 51.9755C39.7416 51.9778 39.4792 52.033 39.2352 52.1378C38.9912 52.2426 38.7705 52.395 38.586 52.586L34 57.171V30C34 29.4696 33.7893 28.9609 33.4142 28.5858C33.0391 28.2107 32.5304 28 32 28Z" fill="#00CFC1"/>
</g>
<defs>
<clipPath id="clip0_2005_34">
<rect width="64" height="64" fill="white"/>
</clipPath>
</defs>
</svg>
