<svg width="80" height="80" viewBox="0 0 500 500" fill="none" xmlns="http://www.w3.org/2000/svg">
<rect width="500" height="500" fill="none"/>
<path d="M125.227 266.425V129.217H152.331C162.498 129.217 169.893 131.394 174.518 135.738C179.154 140.071 181.649 147.154 181.998 156.988C182.216 163.279 182.331 168.977 182.331 174.071C182.331 179.154 182.216 184.498 181.998 190.092C181.649 199.925 179.154 207.019 174.518 211.363C169.893 215.712 162.435 217.884 152.143 217.884H143.914V266.425H125.227ZM143.914 201.425H152.143C159.352 201.425 163.128 197.936 163.477 190.946C163.696 185.462 163.81 179.665 163.81 173.55C163.81 167.425 163.696 161.623 163.477 156.134C163.128 149.165 159.414 145.675 152.331 145.675H143.914V201.425Z" fill="#00CFC1"/>
<path d="M354.547 261.022L342.089 250.918L329.568 261.022C329.037 261.454 328.776 262.017 328.776 262.71V271.855C328.776 272.538 328.432 272.876 327.755 272.876H324.234C323.984 272.876 323.745 272.783 323.526 272.585C323.318 272.392 323.214 272.147 323.214 271.855V260.147C323.214 259.897 323.281 259.605 323.422 259.272C323.573 258.928 323.766 258.678 324.005 258.522L337.255 247.772L324.005 237.085C323.474 236.642 323.214 236.079 323.214 235.397V223.689C323.214 223.439 323.318 223.204 323.526 222.98C323.745 222.762 323.984 222.647 324.234 222.647H327.755C328.047 222.647 328.287 222.762 328.484 222.98C328.677 223.204 328.776 223.439 328.776 223.689V232.897C328.776 233.147 328.844 233.449 328.984 233.793C329.135 234.126 329.328 234.371 329.568 234.522L342.089 244.626L354.547 234.522C354.781 234.371 354.969 234.126 355.109 233.793C355.26 233.449 355.339 233.147 355.339 232.897V223.689C355.339 223.439 355.432 223.204 355.63 222.98C355.839 222.762 356.089 222.647 356.38 222.647H359.88C360.172 222.647 360.412 222.762 360.609 222.98C360.802 223.204 360.901 223.439 360.901 223.689V235.397C360.901 236.079 360.635 236.642 360.109 237.085L346.922 247.772L360.109 258.522C360.344 258.678 360.531 258.928 360.672 259.272C360.823 259.605 360.901 259.897 360.901 260.147V271.855C360.901 272.538 360.557 272.876 359.88 272.876H356.38C355.682 272.876 355.339 272.538 355.339 271.855V262.71C355.339 262.017 355.073 261.454 354.547 261.022Z" fill="white"/>
<path d="M283.187 272.876C281.713 272.876 280.333 272.6 279.042 272.043C277.75 271.475 276.625 270.72 275.667 269.772C274.719 268.814 273.963 267.678 273.396 266.355C272.838 265.038 272.562 263.647 272.562 262.189V233.335C272.562 231.876 272.838 230.501 273.396 229.21C273.963 227.918 274.719 226.788 275.667 225.814C276.625 224.829 277.75 224.059 279.042 223.501C280.333 222.934 281.713 222.647 283.187 222.647H299.5C300.969 222.647 302.354 222.934 303.646 223.501C304.937 224.059 306.068 224.829 307.042 225.814C308.026 226.788 308.797 227.918 309.354 229.21C309.906 230.501 310.187 231.876 310.187 233.335V262.189C310.187 263.647 309.906 265.038 309.354 266.355C308.797 267.678 308.026 268.814 307.042 269.772C306.068 270.72 304.937 271.475 303.646 272.043C302.354 272.6 300.969 272.876 299.5 272.876H283.187ZM283.187 228.21C281.771 228.21 280.562 228.72 279.562 229.73C278.562 230.73 278.062 231.934 278.062 233.335V262.189C278.062 263.605 278.562 264.814 279.562 265.814C280.562 266.814 281.771 267.314 283.187 267.314H299.5C300.917 267.314 302.125 266.814 303.125 265.814C304.125 264.814 304.625 263.605 304.625 262.189V233.335C304.625 231.934 304.125 230.73 303.125 229.73C302.125 228.72 300.917 228.21 299.5 228.21H283.187Z" fill="white"/>
<path d="M230.474 272.876C229 272.876 227.62 272.6 226.328 272.043C225.036 271.475 223.911 270.72 222.953 269.772C222.005 268.814 221.25 267.678 220.682 266.355C220.125 265.038 219.849 263.647 219.849 262.189V233.335C219.849 231.876 220.125 230.501 220.682 229.21C221.25 227.918 222.005 226.788 222.953 225.814C223.911 224.829 225.036 224.059 226.328 223.501C227.62 222.934 229 222.647 230.474 222.647H246.786C248.255 222.647 249.64 222.934 250.932 223.501C252.224 224.059 253.354 224.829 254.328 225.814C255.312 226.788 256.083 227.918 256.64 229.21C257.193 230.501 257.474 231.876 257.474 233.335V262.189C257.474 263.647 257.193 265.038 256.64 266.355C256.083 267.678 255.312 268.814 254.328 269.772C253.354 270.72 252.224 271.475 250.932 272.043C249.64 272.6 248.255 272.876 246.786 272.876H230.474ZM230.474 228.21C229.057 228.21 227.849 228.72 226.849 229.73C225.849 230.73 225.349 231.934 225.349 233.335V262.189C225.349 263.605 225.849 264.814 226.849 265.814C227.849 266.814 229.057 267.314 230.474 267.314H246.786C248.203 267.314 249.411 266.814 250.411 265.814C251.411 264.814 251.911 263.605 251.911 262.189V233.335C251.911 231.934 251.411 230.73 250.411 229.73C249.411 228.72 248.203 228.21 246.786 228.21H230.474Z" fill="white"/>
<path d="M195.76 222.647C196.052 222.647 196.328 222.751 196.593 222.96C196.87 223.158 197.057 223.371 197.156 223.605L207.323 249.085C207.416 249.335 207.5 249.658 207.573 250.043C207.656 250.434 207.698 250.772 207.698 251.064V271.855C207.698 272.538 207.354 272.876 206.677 272.876H203.239C202.541 272.876 202.198 272.538 202.198 271.855V258.314H175.635V271.855C175.635 272.538 175.291 272.876 174.614 272.876H171.093C170.411 272.876 170.073 272.538 170.073 271.855V251.064C170.073 250.772 170.104 250.434 170.177 250.043C170.245 249.658 170.328 249.335 170.427 249.085L180.614 223.605C180.708 223.371 180.906 223.158 181.198 222.96C181.489 222.751 181.76 222.647 182.01 222.647H195.76ZM202.198 252.814V251.064L193.052 228.21H184.781L175.635 251.064V252.814H202.198Z" fill="white"/>
<path d="M72.8175 253.825C72.8175 266.617 74.7967 278.294 78.755 288.867C82.7134 299.45 89.0571 307.815 97.7759 313.971C106.484 320.138 118.047 323.221 132.463 323.221C135.953 323.221 141.297 323.101 148.505 322.867C155.713 322.643 163.38 322.414 171.505 322.179C179.64 321.94 187.078 321.705 193.818 321.471C200.568 321.247 205.109 321.138 207.443 321.138C216.734 321.138 222.713 322.705 225.38 325.846C228.057 328.981 229.401 333.346 229.401 338.929V350.783H264.63V338.929C264.63 333.346 265.963 328.981 268.63 325.846C271.307 322.705 277.297 321.138 286.588 321.138C289.156 321.138 293.755 321.247 300.38 321.471C307.005 321.705 314.443 321.94 322.693 322.179C330.943 322.414 338.724 322.643 346.047 322.867C353.38 323.101 358.786 323.221 362.276 323.221C376.453 323.221 387.963 320.138 396.797 313.971C405.63 307.815 412.015 299.45 415.963 288.867C419.922 278.294 421.901 266.617 421.901 253.825H402.734C402.734 262.434 398.776 269.992 390.859 276.492C382.953 283.002 373.427 286.263 362.276 286.263C359.245 286.263 354.885 286.143 349.193 285.908C343.495 285.684 337.276 285.455 330.526 285.221C323.786 284.981 317.453 284.747 311.526 284.513C305.594 284.289 301.005 284.179 297.755 284.179C285.432 284.179 274.969 286.559 266.359 291.325C257.76 296.085 252.422 303.351 250.338 313.117H244.047C242.182 303.351 236.953 296.085 228.359 291.325C219.76 286.559 209.182 284.179 196.63 284.179C193.364 284.179 188.828 284.289 183.026 284.513C177.219 284.747 170.943 284.981 164.193 285.221C157.453 285.455 151.234 285.684 145.526 285.908C139.833 286.143 135.479 286.263 132.463 286.263C121.297 286.263 111.765 283.002 103.859 276.492C95.9582 269.992 92.005 262.434 92.005 253.825H72.8175Z" fill="#00CFC1"/>
</svg>
