<svg width="80" height="68" viewBox="0 0 80 68" fill="none" xmlns="http://www.w3.org/2000/svg">
<rect width="80" height="68" fill="none"/>
<path d="M58.3333 25.4972C55.3491 25.4961 52.4111 26.1235 49.7819 27.3233C49.542 26.7862 49.1155 26.3238 48.5591 25.9977C48.0026 25.6715 47.3426 25.4969 46.6667 25.4972H33.3333C32.8955 25.497 32.462 25.5701 32.0574 25.7124C31.6529 25.8547 31.2853 26.0634 30.9758 26.3266C30.6662 26.5897 30.4207 26.9021 30.2532 27.246C30.0858 27.5898 29.9998 27.9584 30 28.3305V62.3305C29.9997 62.7026 30.0858 63.0712 30.2532 63.415C30.4206 63.7589 30.6662 64.0713 30.9757 64.3344C31.2853 64.5976 31.6529 64.8063 32.0574 64.9486C32.462 65.0909 32.8955 65.164 33.3333 65.1638H46.6667C47.1045 65.164 47.538 65.0909 47.9426 64.9486C48.3471 64.8063 48.7147 64.5976 49.0243 64.3344C49.3338 64.0713 49.5794 63.7589 49.7468 63.415C49.9142 63.0712 50.0003 62.7026 50 62.3305V46.7472C50 45.9957 50.3512 45.2751 50.9763 44.7437C51.6014 44.2123 52.4493 43.9138 53.3333 43.9138C54.2174 43.9138 55.0652 44.2123 55.6904 44.7437C56.3155 45.2751 56.6667 45.9957 56.6667 46.7472V62.3305C56.6664 62.7026 56.7525 63.0712 56.9199 63.415C57.0873 63.7589 57.3328 64.0713 57.6424 64.3344C57.952 64.5976 58.3196 64.8063 58.7241 64.9486C59.1286 65.0909 59.5622 65.164 60 65.1638H73.3333C73.7712 65.164 74.2047 65.0909 74.6093 64.9486C75.0138 64.8063 75.3814 64.5976 75.6909 64.3344C76.0005 64.0713 76.246 63.7589 76.4135 63.415C76.5809 63.0712 76.6669 62.7026 76.6667 62.3305V41.0805C76.6606 36.9491 74.7271 32.9884 71.2903 30.0671C67.8534 27.1458 63.1938 25.5023 58.3333 25.4972ZM70 59.4972H63.3333V46.7472C63.3333 44.4928 62.2798 42.3308 60.4044 40.7368C58.529 39.1427 55.9855 38.2472 53.3333 38.2472C50.6812 38.2472 48.1376 39.1427 46.2623 40.7368C44.3869 42.3308 43.3333 44.4928 43.3333 46.7472V59.4972H36.6667V31.1638H43.3333V33.156C43.3337 33.7431 43.5486 34.3156 43.9482 34.7944C44.3478 35.2733 44.9124 35.6348 45.5641 35.8292C46.2158 36.0236 46.9225 36.0411 47.5864 35.8795C48.2504 35.7179 48.839 35.385 49.2708 34.9269C50.7668 33.312 52.8186 32.1344 55.14 31.5587C57.4613 30.983 59.9362 31.0378 62.2191 31.7155C64.502 32.3932 66.4789 33.66 67.8739 35.3389C69.2688 37.0178 70.0121 39.0251 70 41.0805V59.4972ZM23.3333 25.4972H10C9.56219 25.497 9.12863 25.5701 8.7241 25.7124C8.31956 25.8547 7.952 26.0634 7.64242 26.3266C7.33284 26.5897 7.08732 26.9021 6.91989 27.246C6.75247 27.5898 6.66642 27.9584 6.66667 28.3305V62.3305C6.66641 62.7026 6.75246 63.0712 6.91989 63.415C7.08731 63.7589 7.33283 64.0713 7.64241 64.3344C7.95199 64.5976 8.31956 64.8063 8.72409 64.9486C9.12862 65.0909 9.56219 65.164 10 65.1638H23.3333C23.7711 65.164 24.2047 65.0909 24.6092 64.9486C25.0138 64.8063 25.3813 64.5976 25.6909 64.3344C26.0005 64.0713 26.246 63.7589 26.4135 63.415C26.5809 63.0712 26.6669 62.7026 26.6667 62.3305V28.3305C26.6669 27.9584 26.5809 27.5898 26.4134 27.246C26.246 26.9021 26.0005 26.5897 25.6909 26.3266C25.3813 26.0634 25.0138 25.8547 24.6092 25.7124C24.2047 25.5701 23.7711 25.497 23.3333 25.4972ZM20 59.4972H13.3333V31.1638H20V59.4972ZM16.7155 4.369C15.2567 4.29478 13.7954 4.47354 12.4204 4.89443C11.0455 5.31531 9.78557 5.96952 8.71739 6.81726C7.64921 7.66501 6.79505 8.68857 6.20686 9.82572C5.61867 10.9629 5.30875 12.1898 5.29592 13.432C5.2831 14.6741 5.56766 15.9055 6.13228 17.0512C6.69691 18.197 7.52981 19.2331 8.58033 20.0967C9.63085 20.9602 10.877 21.6331 12.2431 22.0744C13.6092 22.5158 15.0666 22.7163 16.5267 22.6638H16.6211C18.0837 22.7377 19.5487 22.5573 20.9266 22.1336C22.3044 21.7099 23.5662 21.0519 24.6347 20.1997C25.7033 19.3475 26.5562 18.3191 27.1414 17.1773C27.7265 16.0355 28.0316 14.8042 28.0381 13.5588C28.0445 12.3134 27.7521 11.0799 27.1787 9.93376C26.6054 8.78762 25.7631 7.75288 24.7034 6.89278C23.6437 6.03268 22.3888 5.36527 21.0153 4.93134C19.6419 4.49741 18.1789 4.30606 16.7155 4.369ZM16.6211 16.9972H16.5267C15.9502 17.0567 15.3655 17.0107 14.8116 16.8624C14.2578 16.7141 13.7477 16.4668 13.3155 16.1371C12.8833 15.8075 12.539 15.4031 12.3057 14.9511C12.0724 14.4992 11.9556 14.01 11.9629 13.5164C11.9629 11.4025 13.8281 10.0356 16.7155 10.0356C17.2978 9.96965 17.89 10.0105 18.4522 10.1554C19.0144 10.3004 19.5335 10.546 19.9746 10.8759C20.4157 11.2057 20.7685 11.612 21.0093 12.0675C21.2501 12.523 21.3732 13.0171 21.3704 13.5164C21.3704 15.6304 19.5052 16.9972 16.6211 16.9972Z" fill="#00CFC1"/>
</svg>
