<svg xmlns="http://www.w3.org/2000/svg" xmlns:xlink="http://www.w3.org/1999/xlink" width="1134" zoomAndPan="magnify" viewBox="0 0 850.5 850.499973" height="1134" preserveAspectRatio="xMidYMid meet" version="1.2"><defs/><g id="d30438c100"><g style="fill:#00cfc1;fill-opacity:1;"><g transform="translate(243.633342, 439.325418)"><path style="stroke:none" d="M 12.03125 0 L 12.03125 -209.109375 L 53.328125 -209.109375 C 68.835938 -209.109375 80.117188 -205.796875 87.171875 -199.171875 C 94.234375 -192.554688 98.023438 -181.753906 98.546875 -166.765625 C 98.890625 -157.179688 99.0625 -148.507812 99.0625 -140.75 C 99.0625 -133 98.890625 -124.851562 98.546875 -116.3125 C 98.023438 -101.332031 94.234375 -90.53125 87.171875 -83.90625 C 80.117188 -77.28125 68.75 -73.96875 53.0625 -73.96875 L 40.515625 -73.96875 L 40.515625 0 Z M 40.515625 -99.0625 L 53.0625 -99.0625 C 64.039062 -99.0625 69.789062 -104.378906 70.3125 -115.015625 C 70.664062 -123.378906 70.84375 -132.222656 70.84375 -141.546875 C 70.84375 -150.867188 70.664062 -159.710938 70.3125 -168.078125 C 69.789062 -178.703125 64.128906 -184.015625 53.328125 -184.015625 L 40.515625 -184.015625 Z M 40.515625 -99.0625 "/></g></g><g style="fill:#00cfc1;fill-opacity:1;"><g transform="translate(244.24568, 412.331431)"><path style="stroke:none" d="M -106.46875 12.71875 C -106.46875 32.132812 -103.460938 49.875 -97.453125 65.9375 C -91.453125 82.007812 -81.832031 94.722656 -68.59375 104.078125 C -55.351562 113.441406 -37.785156 118.125 -15.890625 118.125 C -10.585938 118.125 -2.46875 117.945312 8.46875 117.59375 C 19.414062 117.238281 31.066406 116.882812 43.421875 116.53125 C 55.785156 116.175781 67.085938 115.820312 77.328125 115.46875 C 87.566406 115.125 94.453125 114.953125 97.984375 114.953125 C 112.109375 114.953125 121.203125 117.332031 125.265625 122.09375 C 129.328125 126.863281 131.359375 133.484375 131.359375 141.953125 L 131.359375 159.96875 L 184.859375 159.96875 L 184.859375 141.953125 C 184.859375 133.484375 186.890625 126.863281 190.953125 122.09375 C 195.015625 117.332031 204.109375 114.953125 218.234375 114.953125 C 222.117188 114.953125 229.09375 115.125 239.15625 115.46875 C 249.21875 115.820312 260.515625 116.175781 273.046875 116.53125 C 285.585938 116.882812 297.421875 117.238281 308.546875 117.59375 C 319.671875 117.945312 327.878906 118.125 333.171875 118.125 C 354.710938 118.125 372.191406 113.441406 385.609375 104.078125 C 399.023438 94.722656 408.734375 82.007812 414.734375 65.9375 C 420.742188 49.875 423.75 32.132812 423.75 12.71875 L 394.609375 12.71875 C 394.609375 25.78125 388.601562 37.253906 376.59375 47.140625 C 364.59375 57.035156 350.117188 61.984375 333.171875 61.984375 C 328.578125 61.984375 321.953125 61.804688 313.296875 61.453125 C 304.648438 61.097656 295.207031 60.742188 284.96875 60.390625 C 274.726562 60.035156 265.101562 59.679688 256.09375 59.328125 C 247.09375 58.972656 240.125 58.796875 235.1875 58.796875 C 216.46875 58.796875 200.570312 62.414062 187.5 69.65625 C 174.4375 76.894531 166.316406 87.929688 163.140625 102.765625 L 153.609375 102.765625 C 150.785156 87.929688 142.835938 76.894531 129.765625 69.65625 C 116.703125 62.414062 100.640625 58.796875 81.578125 58.796875 C 76.628906 58.796875 69.738281 58.972656 60.90625 59.328125 C 52.082031 59.679688 42.550781 60.035156 32.3125 60.390625 C 22.070312 60.742188 12.625 61.097656 3.96875 61.453125 C -4.675781 61.804688 -11.296875 61.984375 -15.890625 61.984375 C -32.835938 61.984375 -47.3125 57.035156 -59.3125 47.140625 C -71.320312 37.253906 -77.328125 25.78125 -77.328125 12.71875 Z M -106.46875 12.71875 "/></g></g><g style="fill:#000000;fill-opacity:1;"><g transform="translate(313.044335, 439.751774)"><path style="stroke:none" d="M 43.734375 -67.875 C 44.128906 -67.875 44.507812 -67.742188 44.875 -67.484375 C 45.238281 -67.222656 45.488281 -66.925781 45.625 -66.59375 L 59.375 -32.15625 C 59.5 -31.832031 59.609375 -31.40625 59.703125 -30.875 C 59.804688 -30.34375 59.859375 -29.878906 59.859375 -29.484375 L 59.859375 -1.390625 C 59.859375 -0.460938 59.398438 0 58.484375 0 L 53.828125 0 C 52.898438 0 52.4375 -0.460938 52.4375 -1.390625 L 52.4375 -19.6875 L 16.53125 -19.6875 L 16.53125 -1.390625 C 16.53125 -0.460938 16.066406 0 15.140625 0 L 10.390625 0 C 9.460938 0 9 -0.460938 9 -1.390625 L 9 -29.484375 C 9 -29.878906 9.046875 -30.34375 9.140625 -30.875 C 9.242188 -31.40625 9.363281 -31.832031 9.5 -32.15625 L 23.25 -66.59375 C 23.382812 -66.925781 23.648438 -67.222656 24.046875 -67.484375 C 24.441406 -67.742188 24.804688 -67.875 25.140625 -67.875 Z M 52.4375 -27.109375 L 52.4375 -29.484375 L 40.078125 -60.359375 L 28.890625 -60.359375 L 16.53125 -29.484375 L 16.53125 -27.109375 Z M 52.4375 -27.109375 "/></g></g><g style="fill:#000000;fill-opacity:1;"><g transform="translate(382.017856, 439.751774)"><path style="stroke:none" d="M 23.453125 0 C 21.472656 0 19.609375 -0.378906 17.859375 -1.140625 C 16.109375 -1.898438 14.585938 -2.921875 13.296875 -4.203125 C 12.015625 -5.492188 10.992188 -7.03125 10.234375 -8.8125 C 9.484375 -10.59375 9.109375 -12.472656 9.109375 -14.453125 L 9.109375 -53.4375 C 9.109375 -55.414062 9.484375 -57.273438 10.234375 -59.015625 C 10.992188 -60.765625 12.015625 -62.300781 13.296875 -63.625 C 14.585938 -64.945312 16.109375 -65.984375 17.859375 -66.734375 C 19.609375 -67.492188 21.472656 -67.875 23.453125 -67.875 L 45.515625 -67.875 C 47.492188 -67.875 49.359375 -67.492188 51.109375 -66.734375 C 52.859375 -65.984375 54.390625 -64.945312 55.703125 -63.625 C 57.023438 -62.300781 58.066406 -60.765625 58.828125 -59.015625 C 59.585938 -57.273438 59.96875 -55.414062 59.96875 -53.4375 L 59.96875 -14.453125 C 59.96875 -12.472656 59.585938 -10.59375 58.828125 -8.8125 C 58.066406 -7.03125 57.023438 -5.492188 55.703125 -4.203125 C 54.390625 -2.921875 52.859375 -1.898438 51.109375 -1.140625 C 49.359375 -0.378906 47.492188 0 45.515625 0 Z M 23.453125 -60.359375 C 21.535156 -60.359375 19.898438 -59.679688 18.546875 -58.328125 C 17.203125 -56.972656 16.53125 -55.34375 16.53125 -53.4375 L 16.53125 -14.453125 C 16.53125 -12.535156 17.203125 -10.898438 18.546875 -9.546875 C 19.898438 -8.191406 21.535156 -7.515625 23.453125 -7.515625 L 45.515625 -7.515625 C 47.429688 -7.515625 49.0625 -8.191406 50.40625 -9.546875 C 51.757812 -10.898438 52.4375 -12.535156 52.4375 -14.453125 L 52.4375 -53.4375 C 52.4375 -55.34375 51.757812 -56.972656 50.40625 -58.328125 C 49.0625 -59.679688 47.429688 -60.359375 45.515625 -60.359375 Z M 23.453125 -60.359375 "/></g></g><g style="fill:#000000;fill-opacity:1;"><g transform="translate(450.991377, 439.751774)"><path style="stroke:none" d="M 23.453125 0 C 21.472656 0 19.609375 -0.378906 17.859375 -1.140625 C 16.109375 -1.898438 14.585938 -2.921875 13.296875 -4.203125 C 12.015625 -5.492188 10.992188 -7.03125 10.234375 -8.8125 C 9.484375 -10.59375 9.109375 -12.472656 9.109375 -14.453125 L 9.109375 -53.4375 C 9.109375 -55.414062 9.484375 -57.273438 10.234375 -59.015625 C 10.992188 -60.765625 12.015625 -62.300781 13.296875 -63.625 C 14.585938 -64.945312 16.109375 -65.984375 17.859375 -66.734375 C 19.609375 -67.492188 21.472656 -67.875 23.453125 -67.875 L 45.515625 -67.875 C 47.492188 -67.875 49.359375 -67.492188 51.109375 -66.734375 C 52.859375 -65.984375 54.390625 -64.945312 55.703125 -63.625 C 57.023438 -62.300781 58.066406 -60.765625 58.828125 -59.015625 C 59.585938 -57.273438 59.96875 -55.414062 59.96875 -53.4375 L 59.96875 -14.453125 C 59.96875 -12.472656 59.585938 -10.59375 58.828125 -8.8125 C 58.066406 -7.03125 57.023438 -5.492188 55.703125 -4.203125 C 54.390625 -2.921875 52.859375 -1.898438 51.109375 -1.140625 C 49.359375 -0.378906 47.492188 0 45.515625 0 Z M 23.453125 -60.359375 C 21.535156 -60.359375 19.898438 -59.679688 18.546875 -58.328125 C 17.203125 -56.972656 16.53125 -55.34375 16.53125 -53.4375 L 16.53125 -14.453125 C 16.53125 -12.535156 17.203125 -10.898438 18.546875 -9.546875 C 19.898438 -8.191406 21.535156 -7.515625 23.453125 -7.515625 L 45.515625 -7.515625 C 47.429688 -7.515625 49.0625 -8.191406 50.40625 -9.546875 C 51.757812 -10.898438 52.4375 -12.535156 52.4375 -14.453125 L 52.4375 -53.4375 C 52.4375 -55.34375 51.757812 -56.972656 50.40625 -58.328125 C 49.0625 -59.679688 47.429688 -60.359375 45.515625 -60.359375 Z M 23.453125 -60.359375 "/></g></g><g style="fill:#000000;fill-opacity:1;"><g transform="translate(519.964898, 439.751774)"><path style="stroke:none" d="M 51.359375 -16.03125 L 34.53125 -29.6875 L 17.609375 -16.03125 C 16.890625 -15.4375 16.53125 -14.675781 16.53125 -13.75 L 16.53125 -1.390625 C 16.53125 -0.460938 16.066406 0 15.140625 0 L 10.390625 0 C 10.054688 0 9.738281 -0.128906 9.4375 -0.390625 C 9.144531 -0.660156 9 -0.992188 9 -1.390625 L 9 -17.21875 C 9 -17.550781 9.097656 -17.945312 9.296875 -18.40625 C 9.492188 -18.863281 9.757812 -19.191406 10.09375 -19.390625 L 28 -33.9375 L 10.09375 -48.390625 C 9.363281 -48.984375 9 -49.738281 9 -50.65625 L 9 -66.5 C 9 -66.820312 9.144531 -67.128906 9.4375 -67.421875 C 9.738281 -67.722656 10.054688 -67.875 10.390625 -67.875 L 15.140625 -67.875 C 15.535156 -67.875 15.863281 -67.722656 16.125 -67.421875 C 16.394531 -67.128906 16.53125 -66.820312 16.53125 -66.5 L 16.53125 -54.03125 C 16.53125 -53.695312 16.628906 -53.296875 16.828125 -52.828125 C 17.023438 -52.367188 17.285156 -52.039062 17.609375 -51.84375 L 34.53125 -38.203125 L 51.359375 -51.84375 C 51.679688 -52.039062 51.941406 -52.367188 52.140625 -52.828125 C 52.335938 -53.296875 52.4375 -53.695312 52.4375 -54.03125 L 52.4375 -66.5 C 52.4375 -66.820312 52.566406 -67.128906 52.828125 -67.421875 C 53.097656 -67.722656 53.429688 -67.875 53.828125 -67.875 L 58.578125 -67.875 C 58.972656 -67.875 59.300781 -67.722656 59.5625 -67.421875 C 59.832031 -67.128906 59.96875 -66.820312 59.96875 -66.5 L 59.96875 -50.65625 C 59.96875 -49.738281 59.601562 -48.984375 58.875 -48.390625 L 41.0625 -33.9375 L 58.875 -19.390625 C 59.207031 -19.191406 59.472656 -18.863281 59.671875 -18.40625 C 59.867188 -17.945312 59.96875 -17.550781 59.96875 -17.21875 L 59.96875 -1.390625 C 59.96875 -0.460938 59.503906 0 58.578125 0 L 53.828125 0 C 52.898438 0 52.4375 -0.460938 52.4375 -1.390625 L 52.4375 -13.75 C 52.4375 -14.675781 52.078125 -15.4375 51.359375 -16.03125 Z M 51.359375 -16.03125 "/></g></g></g></svg>