<svg width="84" height="77" viewBox="0 0 84 77" fill="none" xmlns="http://www.w3.org/2000/svg">
<path d="M41.9723 1.80586C34.7231 1.80652 27.6106 3.61207 21.3961 7.02924C15.1816 10.4464 10.099 15.3465 6.69247 21.2051C3.28592 27.0637 1.68362 33.6601 2.05709 40.2884C2.43056 46.9166 4.76574 53.3271 8.81267 58.8336L2 75L20.1787 69.049C25.3923 72.1647 31.3287 74.1224 37.5148 74.766C43.7009 75.4095 49.9657 74.7212 55.8099 72.7558C61.654 70.7904 66.9159 67.6023 71.1762 63.4456C75.4365 59.2889 78.5774 54.2785 80.3485 48.8138C82.1196 43.3491 82.472 37.5812 81.3776 31.9697C80.2832 26.3583 77.7722 21.0585 74.0448 16.4927C70.3174 11.9269 65.4767 8.22143 59.9084 5.67156C54.3401 3.1217 48.1982 1.79796 41.9723 1.80586Z" stroke="#00CFC1" stroke-width="4" stroke-linecap="round" stroke-linejoin="round"/>
<path d="M34.9167 46.4002C39.64 50.5312 50.0677 55.9334 54.9 55.9334C57.0198 55.9526 59.0819 55.3303 60.7373 54.1721C62.3926 53.0139 63.5394 51.3909 63.9833 49.5779V46.4002C63.9833 46.4002 59.5143 44.4935 56.7167 43.2224C53.919 41.9513 49.45 46.4002 49.45 46.4002C46.0497 45.4313 42.9443 43.8017 40.3667 41.6335C37.8877 39.3791 36.0244 36.6631 34.9167 33.6891C34.9167 33.6891 40.0033 29.7805 38.55 27.3336C37.0967 24.8867 34.9167 20.9781 34.9167 20.9781H31.2833C29.2105 21.3664 27.3548 22.3693 26.0305 23.8171C24.7062 25.2649 23.9948 27.0685 24.0167 28.9225C24.0167 33.1489 30.1933 42.2691 34.9167 46.4002Z" stroke="#00CFC1" stroke-width="4" stroke-linecap="round" stroke-linejoin="round"/>
</svg>
