<svg width="82" height="76" viewBox="0 0 82 76" fill="none" xmlns="http://www.w3.org/2000/svg">
<path d="M40.9723 1.80586C33.7231 1.80652 26.6106 3.61207 20.3961 7.02924C14.1816 10.4464 9.09903 15.3465 5.69247 21.2051C2.28592 27.0637 0.683619 33.6601 1.05709 40.2884C1.43056 46.9166 3.76574 53.3271 7.81267 58.8336L1 75L19.1787 69.049C24.3923 72.1647 30.3287 74.1224 36.5148 74.766C42.7009 75.4095 48.9657 74.7212 54.8099 72.7558C60.654 70.7904 65.9159 67.6023 70.1762 63.4456C74.4365 59.2889 77.5774 54.2785 79.3485 48.8138C81.1196 43.3491 81.472 37.5812 80.3776 31.9697C79.2832 26.3583 76.7722 21.0585 73.0448 16.4927C69.3174 11.9269 64.4767 8.22143 58.9084 5.67156C53.3401 3.1217 47.1982 1.79796 40.9723 1.80586Z" fill="url(#paint0_linear_1_3)" stroke="#2C12F1" stroke-width="2" stroke-linecap="round" stroke-linejoin="round"/>
<path d="M33.9167 46.4002C38.64 50.5312 49.0677 55.9334 53.9 55.9334C56.0198 55.9526 58.0819 55.3303 59.7373 54.1721C61.3926 53.0139 62.5394 51.3909 62.9833 49.5779V46.4002C62.9833 46.4002 58.5143 44.4935 55.7167 43.2224C52.919 41.9513 48.45 46.4002 48.45 46.4002C45.0497 45.4313 41.9443 43.8017 39.3667 41.6335C36.8877 39.3791 35.0244 36.6631 33.9167 33.6891C33.9167 33.6891 39.0033 29.7805 37.55 27.3336C36.0967 24.8867 33.9167 20.9781 33.9167 20.9781H30.2833C28.2105 21.3664 26.3548 22.3693 25.0305 23.8171C23.7062 25.2649 22.9948 27.0685 23.0167 28.9225C23.0167 33.1489 29.1933 42.2691 33.9167 46.4002Z" fill="url(#paint1_linear_1_3)" stroke="#1023F3" stroke-width="2" stroke-linecap="round" stroke-linejoin="round"/>
<defs>
<linearGradient id="paint0_linear_1_3" x1="89" y1="11" x2="6.00001" y2="37.2952" gradientUnits="userSpaceOnUse">
<stop offset="0.106473" stop-color="#B5F8F4"/>
<stop offset="0.36208" stop-color="#6DFCF5"/>
<stop offset="0.683077" stop-color="#E12EF9"/>
<stop offset="1" stop-color="#342EF6"/>
</linearGradient>
<linearGradient id="paint1_linear_1_3" x1="66.98" y1="25.369" x2="25.8678" y2="38.9941" gradientUnits="userSpaceOnUse">
<stop offset="0.106473" stop-color="#B5F8F4"/>
<stop offset="0.36208" stop-color="#6DFCF5"/>
<stop offset="0.683077" stop-color="#E12EF9"/>
<stop offset="1" stop-color="#342EF6"/>
</linearGradient>
</defs>
</svg>
